{"title":"Elio Petri's Investigation of a Citizen Above Suspicion (1970) -","uid":13682293,"size":1191461062,"categoryP":"video","categoryS":"hd___movies","magnet":"?xt=urn:btih:8411a295cd8b1a410dcb6e1ec11cc5da43b69057&amp;dn=Elio+Petri%27s+Investigation+of+a+Citizen+Above+Suspicion+%281970%29+-&amp;tr=udp%3A%2F%2Ftracker.leechers-paradise.org%3A6969&amp;tr=udp%3A%2F%2Fzer0day.ch%3A1337&amp;tr=udp%3A%2F%2Fopen.demonii.com%3A1337&amp;tr=udp%3A%2F%2Ftracker.coppersurfer.tk%3A6969&amp;tr=udp%3A%2F%2Fexodus.desync.com%3A6969","seeders":1,"leechers":0,"uploader":"BRSHNKV","files":2,"time":1456490275,"description":"A chief of detectives, homicide section, kills his mistress and deliberately leaves clues to prove his own responsibility for the crime.\r\n\r\n\r\nTechnical:\r\n\r\nFormat : MPEG-4\r\nFormat profile : Base Media\r\nCodec ID : isom\r\nFile size : 1.11 GiB\r\nDuration : 1h 55mn\r\nOverall bit rate mode : Variable\r\nOverall bit rate : 1 375 Kbps\r\nWriting application : Lavf55.33.100\r\n\r\nVideo\r\nID : 2\r\nFormat : HEVC\r\nFormat/Info : High Efficiency Video Coding\r\nCodec ID : hvc1\r\nCodec ID/Info : High Efficiency Video Coding\r\nDuration : 1h 55mn\r\nBit rate : 1 263 Kbps\r\nWidth : 1 280 pixels\r\nHeight : 720 pixels\r\nDisplay aspect ratio : 16:9\r\nFrame rate mode : Constant\r\nFrame rate : 30.000 fps\r\nBits/(Pixel*Frame) : 0.046\r\nStream size : 1.02 GiB (92%)\r\n\r\nAudio\r\nID : 1\r\nFormat : AAC\r\nFormat/Info : Advanced Audio Codec\r\nFormat profile : LC\r\nCodec ID : 40\r\nDuration : 1h 55mn\r\nBit rate mode : Variable\r\nBit rate : 106 Kbps\r\nMaximum bit rate : 128 Kbps\r\nChannel(s) : 2 channels\r\nChannel positions : Front: L R\r\nSampling rate : 48.0 KHz\r\nCompression mode : Lossy\r\nStream size : 88.0 MiB (8%)","torrent":{"xt":"urn:btih:8411a295cd8b1a410dcb6e1ec11cc5da43b69057","amp;dn":"Elio+Petri%27s+Investigation+of+a+Citizen+Above+Suspicion+%281970%29+-","amp;tr":["udp%3A%2F%2Ftracker.leechers-paradise.org%3A6969","udp%3A%2F%2Fzer0day.ch%3A1337","udp%3A%2F%2Fopen.demonii.com%3A1337","udp%3A%2F%2Ftracker.coppersurfer.tk%3A6969","udp%3A%2F%2Fexodus.desync.com%3A6969"],"infoHash":"8411a295cd8b1a410dcb6e1ec11cc5da43b69057","infoHashBuffer":{"type":"Buffer","data":[132,17,162,149,205,139,26,65,13,203,110,30,193,28,197,218,67,182,144,87]},"announce":[],"urlList":[]}}